<?xml version="1.0" encoding="UTF-8" standalone="no"?>
<!DOCTYPE svg PUBLIC "-//W3C//DTD SVG 1.1//EN" "http://www.w3.org/Graphics/SVG/1.1/DTD/svg11.dtd">
<svg width="70.87" height="70.87" viewBox="0.00 0.00 344.00 344.00" xmlns="http://www.w3.org/2000/svg" xmlns:xlink="http://www.w3.org/1999/xlink">
<g stroke-linecap="round" id="Layer_12">
<path d="M200.11,0.61 C199.27,3.63 200.59,16.08 200.61,20.15 C200.50,26.63 200.41,40.03 201.03,45.65 C201.82,52.65 204.69,65.42 207.18,72.04 C209.59,78.32 213.46,88.35 216.23,92.86 C219.70,98.42 223.76,103.29 233.16,112.36 C237.50,116.59 248.66,126.92 251.36,128.98 C256.41,132.77 265.68,136.16 273.64,139.58 C279.26,141.98 288.17,144.28 292.39,144.82 C295.20,145.16 315.85,145.65 316.64,145.68 C318.06,145.73 335.41,147.07 339.78,146.38 C346.17,145.29 347.60,144.31 347.80,144.08" fill="none" stroke="rgb(56, 45, 41)" stroke-width="20.00" stroke-opacity="1.00" stroke-linejoin="round"/>
<path d="M144.51,-0.68 C144.15,1.97 143.32,16.63 143.59,24.99 C143.68,28.59 144.01,40.54 145.04,50.69 C145.52,55.60 147.84,69.66 148.54,75.19 C149.84,82.26 156.02,100.08 163.48,117.83 C164.92,121.24 167.56,126.24 169.26,128.46 C172.31,132.42 201.07,162.38 205.45,166.18 C206.84,167.38 214.70,173.71 216.58,174.84 C216.96,175.07 233.31,183.80 237.35,185.66 C246.32,189.71 256.92,193.01 262.90,194.39 C265.90,195.07 289.01,198.75 292.17,199.14 C294.28,199.40 311.08,200.45 318.32,200.93 C323.61,201.28 338.85,201.33 341.53,201.47 C344.26,201.61 346.73,201.38 347.51,201.23" fill="none" stroke="rgb(56, 45, 41)" stroke-width="20.00" stroke-opacity="1.00" stroke-linejoin="round"/>
<path d="M119.72,32.15 C120.55,32.18 129.86,34.40 133.79,35.60 C134.23,35.73 134.76,35.91 135.39,36.12" fill="none" stroke="rgb(56, 45, 41)" stroke-width="20.00" stroke-opacity="1.00" stroke-linejoin="round"/>
<path d="M146.17,92.00 C145.89,92.49 136.72,100.17 135.56,101.27 C133.15,103.59 130.66,106.00 130.68,105.98" fill="none" stroke="rgb(56, 45, 41)" stroke-width="20.00" stroke-opacity="1.00" stroke-linejoin="round"/>
<path d="M180.84,150.59 C178.96,154.00 176.29,158.21 174.76,160.60 C173.82,162.03 172.29,164.36 171.70,165.26" fill="none" stroke="rgb(56, 45, 41)" stroke-width="20.00" stroke-opacity="1.00" stroke-linejoin="round"/>
<path d="M235.48,193.40 C235.46,194.24 235.51,195.04 235.68,196.37 C235.99,198.61 236.71,203.51 237.00,207.09 C237.03,207.52 237.05,207.82 237.03,207.99" fill="none" stroke="rgb(56, 45, 41)" stroke-width="20.00" stroke-opacity="1.00" stroke-linejoin="round"/>
<path d="M311.23,209.83 C310.80,213.01 309.87,219.47 309.38,222.75 C309.24,223.65 309.10,224.54 308.96,225.44 C308.77,226.55 308.58,227.67 308.39,228.78" fill="none" stroke="rgb(56, 45, 41)" stroke-width="20.00" stroke-opacity="1.00" stroke-linejoin="round"/>
<path d="M206.39,39.86 C207.01,39.89 218.99,38.69 220.49,38.68 C220.80,38.68 221.35,38.70 222.13,38.74" fill="none" stroke="rgb(56, 45, 41)" stroke-width="20.00" stroke-opacity="1.00" stroke-linejoin="round"/>
<path d="M280.52,121.03 C280.76,122.72 284.03,133.20 284.60,135.30 C284.75,135.88 284.91,136.46 285.06,137.04" fill="none" stroke="rgb(56, 45, 41)" stroke-width="20.00" stroke-opacity="1.00" stroke-linejoin="round"/>
</g>
</svg>
