<?xml version="1.0" encoding="UTF-8" standalone="no"?>
<!DOCTYPE svg PUBLIC "-//W3C//DTD SVG 1.1//EN" "http://www.w3.org/Graphics/SVG/1.1/DTD/svg11.dtd">
<svg width="70.87" height="70.87" viewBox="0.00 0.00 344.00 344.00" xmlns="http://www.w3.org/2000/svg" xmlns:xlink="http://www.w3.org/1999/xlink">
<g stroke-linecap="round" id="cross">
<path d="M143.63,-3.91 C143.44,-2.92 142.55,11.54 142.64,18.45 C142.72,24.44 143.73,38.38 144.28,45.66 C144.50,49.28 143.22,67.97 142.37,73.86 C141.47,80.58 140.88,92.39 140.85,103.02 C140.88,110.39 142.27,122.98 143.17,130.66 C144.13,137.21 145.58,147.41 146.46,156.29 C147.14,164.68 145.61,201.96 144.88,217.76 C144.72,226.01 145.15,261.99 145.33,278.71 C145.11,296.63 144.43,309.35 144.24,334.45 C144.21,339.35 143.41,348.85 143.29,351.87 C143.19,354.09 143.26,354.78 143.52,354.82" fill="none" stroke="rgb(56, 45, 41)" stroke-width="20.00" stroke-opacity="1.00" stroke-linejoin="round"/>
<path d="M200.70,-3.27 C200.59,-2.20 198.43,12.06 198.05,21.78 C197.92,29.25 197.90,46.22 198.07,48.53 C198.41,53.05 200.00,64.99 200.42,72.04 C200.67,76.80 198.70,112.38 199.66,123.75 C200.31,130.84 201.83,148.24 201.81,151.28 C201.71,164.22 201.29,192.29 202.51,209.36 C202.98,215.25 203.56,223.00 203.64,232.44 C203.48,252.22 202.21,273.74 201.39,287.09 C200.82,293.70 200.10,302.58 200.37,313.09 C200.53,319.74 199.41,329.73 199.56,334.70 C199.98,339.37 199.53,343.47 199.43,344.00 C199.40,344.19 199.30,344.35 199.16,344.49" fill="none" stroke="rgb(56, 45, 41)" stroke-width="20.00" stroke-opacity="1.00" stroke-linejoin="round"/>
<path d="M-5.55,145.99 C-4.51,146.71 -1.28,146.87 1.74,146.53 C3.47,146.33 20.33,144.85 22.39,144.71 C27.73,144.35 34.55,144.79 47.62,146.13 C56.63,146.93 86.31,145.64 101.31,145.04 C107.82,144.77 122.48,143.95 126.67,143.91 C130.80,143.89 134.46,144.26 137.45,144.85 C139.03,145.18 140.54,145.58 141.39,145.88" fill="none" stroke="rgb(56, 45, 41)" stroke-width="20.00" stroke-opacity="1.00" stroke-linejoin="round"/>
<path d="M-4.91,199.02 C-3.05,198.90 4.16,198.84 5.32,198.88 C44.50,199.47 77.70,202.84 85.53,202.87 C96.68,202.88 132.02,199.29 132.08,199.28 C134.42,199.17 138.08,199.72 138.40,199.79" fill="none" stroke="rgb(56, 45, 41)" stroke-width="20.00" stroke-opacity="1.00" stroke-linejoin="round"/>
<path d="M208.05,144.04 C209.73,144.17 210.86,144.19 212.72,144.10 C219.88,143.72 226.04,143.12 234.13,142.83 C244.79,142.61 283.37,145.32 289.92,145.70 C297.32,146.05 338.54,144.23 340.94,143.92 C345.30,143.36 346.26,143.27 347.03,143.26" fill="none" stroke="rgb(56, 45, 41)" stroke-width="20.00" stroke-opacity="1.00" stroke-linejoin="round"/>
<path d="M210.02,199.78 C210.57,199.75 229.96,198.51 233.76,198.55 C241.09,198.57 256.10,198.46 261.04,198.63 C266.18,198.82 280.87,200.41 287.73,200.09 C290.09,199.97 298.25,199.28 299.91,199.27 C301.61,199.28 312.99,200.63 323.34,200.80 C328.73,200.82 338.17,199.44 347.71,198.67 C353.10,198.24 354.03,198.14 355.16,197.99" fill="none" stroke="rgb(56, 45, 41)" stroke-width="20.00" stroke-opacity="1.00" stroke-linejoin="round"/>
<path d="M114.57,36.68 C115.07,36.77 120.45,36.26 123.50,35.77 C126.96,35.22 135.22,34.24 135.90,34.23" fill="none" stroke="rgb(56, 45, 41)" stroke-width="20.00" stroke-opacity="1.00" stroke-linejoin="round"/>
<path d="M118.70,98.00 C120.97,97.56 122.20,97.22 125.65,96.03 C126.59,95.71 131.49,94.16 132.41,93.89 C133.73,93.53 135.48,93.05 136.00,92.88" fill="none" stroke="rgb(56, 45, 41)" stroke-width="20.00" stroke-opacity="1.00" stroke-linejoin="round"/>
<path d="M204.33,69.99 C204.52,70.26 205.29,70.50 207.02,70.76 C209.91,71.17 215.86,72.05 218.92,72.52 C220.25,72.74 221.25,72.95 221.99,73.13" fill="none" stroke="rgb(56, 45, 41)" stroke-width="20.00" stroke-opacity="1.00" stroke-linejoin="round"/>
<path d="M208.35,173.09 C209.47,173.22 215.69,172.75 219.40,172.75 C220.44,172.76 221.48,172.77 222.51,172.78 C223.38,172.78 224.24,172.79 225.11,172.79" fill="none" stroke="rgb(56, 45, 41)" stroke-width="20.00" stroke-opacity="1.00" stroke-linejoin="round"/>
<path d="M279.98,120.33 C280.25,124.06 280.92,129.08 281.15,130.75 C281.27,131.64 281.39,132.53 281.51,133.43" fill="none" stroke="rgb(56, 45, 41)" stroke-width="20.00" stroke-opacity="1.00" stroke-linejoin="round"/>
<path d="M252.78,205.36 C252.45,207.35 251.22,212.20 250.62,215.51 C250.31,217.28 250.15,218.39 250.14,218.68" fill="none" stroke="rgb(56, 45, 41)" stroke-width="20.00" stroke-opacity="1.00" stroke-linejoin="round"/>
<path d="M313.99,205.86 C314.26,207.81 316.10,213.25 316.49,214.56 C316.60,214.93 316.76,215.51 316.98,216.30" fill="none" stroke="rgb(56, 45, 41)" stroke-width="20.00" stroke-opacity="1.00" stroke-linejoin="round"/>
<path d="M203.94,307.49 C204.03,307.68 204.50,307.84 205.79,308.00 C207.64,308.22 213.45,308.79 216.07,309.16 C218.33,309.48 222.87,309.77 223.53,309.73 C223.53,309.73 224.00,309.19 224.00,309.19" fill="none" stroke="rgb(56, 45, 41)" stroke-width="20.00" stroke-opacity="1.00" stroke-linejoin="round"/>
<path d="M73.91,209.04 C73.67,210.17 73.52,211.12 73.07,214.35 C72.45,218.74 71.71,222.55 71.53,223.50" fill="none" stroke="rgb(56, 45, 41)" stroke-width="20.00" stroke-opacity="1.00" stroke-linejoin="round"/>
<path d="M26.68,125.94 C26.92,126.69 27.17,127.78 27.61,130.24 C28.05,132.70 28.36,134.16 28.77,135.80" fill="none" stroke="rgb(56, 45, 41)" stroke-width="20.00" stroke-opacity="1.00" stroke-linejoin="round"/>
<path d="M102.56,129.10 C102.55,131.36 102.52,135.14 102.52,136.65 C102.53,137.48 102.55,138.31 102.56,139.15" fill="none" stroke="rgb(56, 45, 41)" stroke-width="20.00" stroke-opacity="1.00" stroke-linejoin="round"/>
<path d="M120.30,284.43 C123.73,281.83 132.42,277.71 135.58,276.19 C137.58,275.22 138.94,274.53 139.61,274.16" fill="none" stroke="rgb(56, 45, 41)" stroke-width="20.00" stroke-opacity="1.00" stroke-linejoin="round"/>
</g>
</svg>
