<?xml version="1.0" encoding="UTF-8" standalone="no"?>
<!DOCTYPE svg PUBLIC "-//W3C//DTD SVG 1.1//EN" "http://www.w3.org/Graphics/SVG/1.1/DTD/svg11.dtd">
<svg width="70.87" height="70.87" viewBox="0.00 0.00 344.00 344.00" xmlns="http://www.w3.org/2000/svg" xmlns:xlink="http://www.w3.org/1999/xlink">
<g stroke-linecap="round" transform="translate(-11.00, 4.00)" id="flower">
<path d="M160.34,111.25 C158.57,111.91 154.27,114.38 151.73,116.83 C149.47,119.03 146.75,123.70 146.10,125.36 C144.68,129.07 143.88,138.68 144.28,142.61 C144.51,144.74 145.38,148.43 146.17,150.68 C147.12,153.29 150.41,159.06 153.12,161.66 C154.37,162.83 158.08,165.20 160.09,166.00 C164.21,167.62 173.30,168.35 178.58,167.67 C184.14,166.92 192.76,163.95 196.16,161.76 C198.03,160.52 201.52,157.32 202.47,155.98 C204.46,153.14 206.62,148.24 207.14,146.31 C208.24,142.04 208.39,131.69 207.18,126.96 C206.64,124.87 205.00,120.84 203.83,118.75 C202.54,116.52 198.41,111.85 195.63,110.21 C192.73,108.55 187.33,106.82 184.13,106.39 C181.73,106.09 176.03,105.93 174.07,106.17 C170.12,106.68 166.23,108.18 164.24,109.11" fill="none" stroke="rgb(56, 45, 41)" stroke-width="20.00" stroke-opacity="1.00" stroke-linejoin="round"/>
<path d="M154.66,109.14 C153.56,107.31 145.43,97.45 142.96,93.09 C140.61,88.83 136.88,74.02 136.48,67.94 C136.28,64.55 136.82,58.59 137.68,55.21 C138.68,51.45 141.54,45.95 143.25,43.63 C145.73,40.38 152.25,34.35 155.72,32.22 C159.38,30.00 167.63,27.47 171.58,27.41 C173.93,27.40 178.88,28.68 181.66,29.94 C185.98,31.96 194.42,39.18 197.32,43.29 C200.17,47.40 204.80,58.15 206.03,63.77 C207.07,68.65 207.78,78.10 207.44,81.82 C207.08,85.49 205.73,92.14 204.69,94.68 C202.07,100.93 199.07,104.06 198.46,104.47" fill="none" stroke="rgb(56, 45, 41)" stroke-width="20.00" stroke-opacity="1.00" stroke-linejoin="round"/>
<path d="M147.46,115.29 C147.20,115.06 142.76,109.63 140.78,108.21 C136.73,105.37 127.06,102.09 121.31,101.36 C116.23,100.74 104.37,101.10 98.47,102.22 C91.74,103.53 80.91,107.95 76.01,111.48 C73.76,113.11 69.31,117.19 67.17,119.69 C63.53,124.01 58.76,134.27 57.99,138.88 C57.64,141.17 57.91,147.47 59.25,150.63 C60.67,153.90 64.60,157.97 66.75,159.53 C70.29,162.03 79.85,165.88 84.73,166.99 C89.65,168.09 100.76,168.54 106.03,167.97 C110.33,167.49 118.60,165.73 125.63,163.45 C129.43,162.20 134.47,160.24 138.04,158.59 C140.73,157.33 144.19,155.70 144.95,155.34" fill="none" stroke="rgb(56, 45, 41)" stroke-width="20.00" stroke-opacity="1.00" stroke-linejoin="round"/>
<path d="M143.36,156.22 C139.86,158.30 129.37,167.45 126.71,170.61 C123.17,174.85 117.96,183.45 115.80,188.55 C113.57,193.87 110.64,205.03 110.36,210.77 C110.25,213.41 110.58,219.62 111.02,221.95 C111.69,225.37 113.46,231.10 114.86,233.71 C116.27,236.29 119.87,240.56 121.70,241.96 C124.12,243.77 129.17,246.13 131.90,246.78 C134.49,247.37 139.88,247.44 142.52,247.05 C145.10,246.65 149.56,245.21 152.02,244.01 C156.54,241.78 162.90,235.91 166.08,231.75 C168.83,228.14 174.44,218.09 177.09,211.89 C179.02,207.35 181.77,198.29 182.54,192.91 C183.51,185.99 183.11,175.98 182.69,172.18 C182.66,171.98 182.64,171.67 182.61,171.26" fill="none" stroke="rgb(56, 45, 41)" stroke-width="20.00" stroke-opacity="1.00" stroke-linejoin="round"/>
<path d="M182.62,168.94 C183.39,175.37 185.56,186.93 186.97,191.76 C188.24,196.05 192.65,204.66 195.77,208.64 C198.53,212.12 206.61,218.71 210.88,221.10 C215.36,223.56 224.34,226.57 228.67,227.17 C230.86,227.45 236.70,227.66 240.08,227.27 C241.75,227.06 246.26,225.84 248.04,225.03 C250.00,224.11 253.72,221.35 254.88,220.05 C257.23,217.38 259.68,212.17 260.46,209.47 C261.64,205.31 261.43,195.82 260.19,190.37 C259.09,185.63 255.53,176.98 252.98,173.17 C250.31,169.22 244.21,162.92 240.41,160.13 C236.85,157.55 229.39,153.73 223.47,151.40 C219.69,149.93 216.73,149.05 213.10,148.17" fill="none" stroke="rgb(56, 45, 41)" stroke-width="20.00" stroke-opacity="1.00" stroke-linejoin="round"/>
<path d="M199.98,109.15 C200.45,108.86 203.68,104.11 205.66,101.92 C210.24,96.88 219.12,90.29 224.29,87.55 C229.00,85.08 237.42,81.98 242.20,80.90 C247.36,79.76 259.07,79.09 263.58,80.27 C265.52,80.80 270.11,82.85 271.72,83.88 C273.52,85.07 278.16,89.22 280.47,92.33 C282.26,94.78 285.23,100.34 285.96,102.13 C287.49,106.04 288.30,112.63 287.59,116.08 C286.74,119.87 283.46,125.36 281.56,127.19 C278.01,130.49 269.05,135.97 264.19,137.93 C253.03,142.37 231.33,147.51 226.69,148.06 C224.41,148.33 218.24,148.48 215.68,148.25 C214.20,148.12 213.36,147.95 212.99,147.77" fill="none" stroke="rgb(56, 45, 41)" stroke-width="20.00" stroke-opacity="1.00" stroke-linejoin="round"/>
<path d="M160.43,242.90 C160.46,243.13 153.99,289.11 153.61,295.33 C153.17,302.62 153.39,309.22 154.41,320.06 C155.36,329.98 155.72,337.62 156.40,342.82 C156.79,345.81 157.52,347.77 157.66,347.76" fill="none" stroke="rgb(56, 45, 41)" stroke-width="20.00" stroke-opacity="1.00" stroke-linejoin="round"/>
<path d="M214.33,227.82 C213.79,230.47 212.53,236.76 211.82,240.40 C209.75,251.39 208.68,272.11 208.76,292.94 C208.89,309.71 211.54,331.00 211.53,344.42 C211.52,345.19 211.51,345.96 211.51,346.73" fill="none" stroke="rgb(56, 45, 41)" stroke-width="20.00" stroke-opacity="1.00" stroke-linejoin="round"/>
<path d="M153.94,307.79 C151.13,300.35 146.80,292.62 144.02,289.77 C141.93,287.67 137.53,284.45 134.81,283.05 C132.30,281.78 126.03,279.62 123.19,279.01 C118.50,278.05 107.03,278.46 101.94,279.84 C99.80,280.43 95.09,282.36 93.50,283.29 C91.50,284.50 87.19,288.54 85.84,291.44 C85.14,293.00 84.35,296.26 84.27,297.95 C84.18,301.17 86.31,307.36 87.27,308.84 C89.13,311.63 92.58,315.08 94.25,316.38 C97.91,319.19 106.47,323.40 111.81,324.81 C115.91,325.87 125.89,326.82 131.28,326.85 C138.51,326.82 146.09,325.83 149.75,325.26" fill="none" stroke="rgb(56, 45, 41)" stroke-width="20.00" stroke-opacity="1.00" stroke-linejoin="round"/>
<path d="M211.90,304.83 C212.70,302.47 220.31,291.62 222.91,288.92 C226.15,285.60 235.11,279.71 239.58,277.89 C244.12,276.07 253.22,274.67 257.64,275.18 C260.01,275.47 264.35,276.70 266.30,277.67 C268.51,278.81 273.11,282.61 274.97,285.51 C277.05,288.84 278.88,296.11 278.59,299.91 C278.24,303.75 275.56,310.74 273.18,313.76 C270.99,316.50 267.19,319.66 265.62,320.67 C262.03,322.95 253.10,326.21 247.78,327.19 C242.45,328.16 231.94,328.51 227.52,328.20 C220.04,327.62 212.21,325.59 209.43,324.40" fill="none" stroke="rgb(56, 45, 41)" stroke-width="20.00" stroke-opacity="1.00" stroke-linejoin="round"/>
</g>
</svg>
