<?xml version="1.0" encoding="UTF-8" standalone="no"?>
<!DOCTYPE svg PUBLIC "-//W3C//DTD SVG 1.1//EN" "http://www.w3.org/Graphics/SVG/1.1/DTD/svg11.dtd">
<svg width="70.87" height="70.87" viewBox="0.00 0.00 344.00 344.00" xmlns="http://www.w3.org/2000/svg" xmlns:xlink="http://www.w3.org/1999/xlink">
<g stroke-linecap="round" transform="translate(-11.00, -3.00)" id="numbewr">
<path d="M32.20,25.99 C32.10,26.06 33.42,24.11 34.05,23.25 C36.79,19.51 41.05,15.98 41.52,15.73 C42.80,17.28 42.52,43.19 42.42,48.06 C42.41,48.90 42.39,49.75 42.38,50.59" fill="none" stroke="rgb(56, 45, 41)" stroke-width="10.00" stroke-opacity="1.00" stroke-linejoin="round"/>
<path d="M30.92,52.48 C33.41,52.32 36.94,52.46 40.77,52.43 C47.47,52.38 52.09,52.09 53.04,52.11" fill="none" stroke="rgb(56, 45, 41)" stroke-width="10.00" stroke-opacity="1.00" stroke-linejoin="round"/>
</g>
<g stroke-linecap="round" transform="translate(3.00, 0.00)" id="flower">
<path d="M153.96,76.21 C150.38,76.68 138.76,80.27 134.19,82.01 C127.70,84.50 115.89,91.29 110.28,95.76 C103.84,100.94 96.22,110.40 92.57,116.40 C89.55,121.40 85.01,131.51 83.30,137.34 C82.27,140.93 81.29,146.96 81.09,151.19 C80.94,154.97 81.50,162.18 82.35,165.88 C83.69,171.54 88.71,181.16 90.90,184.32 C93.30,187.79 98.74,194.28 102.13,197.64 C105.11,200.58 112.93,206.73 117.39,209.57 C121.39,212.06 130.32,216.24 136.39,218.39 C139.23,219.35 151.66,222.39 157.02,223.10 C163.30,223.92 177.22,224.35 184.87,223.40 C191.81,222.52 204.97,218.96 211.96,215.75 C219.01,212.47 230.93,203.78 235.65,198.82 C239.56,194.65 246.48,184.68 248.88,179.96 C251.62,174.50 254.65,163.94 254.93,157.77 C255.19,151.23 253.15,138.75 250.87,131.77 C248.42,124.34 241.73,111.82 237.68,106.62 C233.55,101.36 224.13,93.04 219.13,89.92 C214.50,87.05 203.37,82.32 197.16,80.50 C188.39,77.95 172.03,75.32 165.97,75.09 C162.95,74.98 156.69,75.69 155.63,75.83 C155.23,75.88 154.80,75.89 154.32,75.88" fill="none" stroke="rgb(56, 45, 41)" stroke-width="20.00" stroke-opacity="1.00" stroke-linejoin="round"/>
<path d="M152.24,68.09 C152.31,67.57 153.37,61.19 153.78,59.51 C154.53,56.58 156.53,52.36 158.09,50.30 C160.33,47.42 167.57,42.13 171.57,39.91 C174.37,38.39 180.29,36.23 184.50,35.68 C186.39,35.45 192.16,35.91 194.33,36.57 C196.71,37.31 199.94,38.85 201.89,40.18 C203.93,41.59 207.41,44.83 208.90,46.82 C210.37,48.82 212.62,52.88 213.67,55.72 C214.65,58.45 215.37,63.89 215.37,67.83 C215.35,70.65 214.34,77.17 213.39,79.39 C212.95,80.40 212.38,81.19 211.98,81.53" fill="none" stroke="rgb(56, 45, 41)" stroke-width="20.00" stroke-opacity="1.00" stroke-linejoin="round"/>
<path d="M151.41,69.90 C151.42,69.92 151.42,69.88 151.42,69.87 C151.24,68.11 150.96,66.50 150.55,65.38 C149.63,62.94 146.45,58.45 144.63,56.84 C142.79,55.24 137.20,51.91 134.49,50.88 C131.72,49.84 125.74,48.76 122.93,48.70 C120.17,48.67 114.29,49.56 111.99,50.30 C109.58,51.09 104.66,53.78 102.21,55.63 C98.28,58.63 91.70,67.49 90.01,71.78 C88.29,76.27 87.84,85.10 88.78,89.54 C89.21,91.46 91.27,97.70 92.20,99.67 C92.56,100.45 93.55,102.21 94.10,103.19" fill="none" stroke="rgb(56, 45, 41)" stroke-width="20.00" stroke-opacity="1.00" stroke-linejoin="round"/>
<path d="M253.11,122.67 C254.21,121.86 257.26,121.09 259.61,121.13 C262.21,121.21 267.03,122.11 269.91,123.07 C272.83,124.07 278.42,126.85 280.65,128.37 C282.78,129.86 287.22,134.49 288.62,136.37 C290.34,138.72 292.60,144.18 293.47,147.07 C294.24,149.70 294.68,155.34 294.39,158.23 C294.08,161.03 292.56,165.81 291.61,167.63 C290.43,169.83 287.38,173.81 285.91,175.12 C284.14,176.68 280.46,178.87 277.96,180.09 C276.26,180.90 270.15,182.63 267.73,183.01 C265.78,183.30 263.35,183.13 262.00,183.01" fill="none" stroke="rgb(56, 45, 41)" stroke-width="20.00" stroke-opacity="1.00" stroke-linejoin="round"/>
<path d="M253.50,180.42 C253.50,180.42 253.46,179.52 253.46,179.52 C256.44,182.00 258.24,184.10 259.99,186.83 C261.96,189.97 263.62,193.92 264.18,197.26 C264.68,200.40 264.79,206.64 264.37,209.29 C263.81,212.63 262.11,217.79 260.75,220.36 C259.39,222.87 256.81,226.43 255.20,227.92 C253.56,229.41 249.29,232.15 247.25,232.91 C245.47,233.56 239.92,234.24 237.32,234.27 C234.33,234.27 230.08,233.63 226.94,232.63 C214.62,228.62 208.70,223.18 208.61,222.58" fill="none" stroke="rgb(56, 45, 41)" stroke-width="20.00" stroke-opacity="1.00" stroke-linejoin="round"/>
<path d="M215.72,78.24 C216.00,78.05 217.69,76.52 217.74,76.48 C221.90,73.25 233.97,69.94 237.01,69.47 C241.52,68.80 251.69,70.03 255.96,71.66 C258.09,72.49 261.81,74.64 263.53,76.02 C265.49,77.63 269.25,82.04 270.56,85.20 C271.82,88.34 272.21,95.44 271.41,98.81 C270.65,101.86 267.71,107.39 266.01,109.61 C264.48,111.57 260.55,115.01 258.08,116.61 C256.45,117.65 255.59,118.13 254.12,118.80" fill="none" stroke="rgb(56, 45, 41)" stroke-width="20.00" stroke-opacity="1.00" stroke-linejoin="round"/>
<path d="M93.57,102.05 C92.87,101.24 90.84,99.91 87.67,99.24 C84.88,98.66 78.86,98.54 75.80,99.07 C73.48,99.48 65.05,102.19 61.48,104.03 C58.16,105.77 52.59,110.28 50.58,113.03 C48.62,115.78 45.82,123.07 45.43,126.37 C45.07,129.82 46.13,136.72 47.47,139.72 C48.78,142.51 53.66,148.12 56.42,150.03 C59.03,151.79 64.44,153.50 66.22,153.91 C73.63,155.57 76.39,154.32 76.58,154.08" fill="none" stroke="rgb(56, 45, 41)" stroke-width="20.00" stroke-opacity="1.00" stroke-linejoin="round"/>
<path d="M78.13,153.41 C75.88,153.96 71.01,156.27 67.99,158.59 C65.19,160.80 61.71,164.93 59.91,168.08 C58.37,170.85 56.65,175.89 56.29,178.92 C56.06,181.11 56.69,187.75 57.53,190.59 C58.47,193.65 62.24,199.78 64.42,201.90 C66.63,204.00 72.42,207.34 75.72,208.16 C78.76,208.87 84.87,208.73 87.81,208.25 C91.47,207.62 96.69,206.17 99.21,204.88 C100.12,204.40 100.71,204.00 100.93,203.77" fill="none" stroke="rgb(56, 45, 41)" stroke-width="20.00" stroke-opacity="1.00" stroke-linejoin="round"/>
<path d="M97.73,204.74 C96.03,206.80 94.03,211.86 93.56,214.56 C92.99,218.06 93.40,223.69 94.42,226.52 C95.53,229.45 98.39,234.31 100.85,236.64 C103.51,239.08 109.04,241.81 112.50,242.54 C115.90,243.22 123.19,243.25 126.73,242.49 C129.97,241.77 136.15,239.10 138.38,237.24 C143.58,232.82 145.46,228.85 145.69,228.23" fill="none" stroke="rgb(56, 45, 41)" stroke-width="20.00" stroke-opacity="1.00" stroke-linejoin="round"/>
<path d="M144.97,232.62 C145.01,234.26 146.45,238.51 147.82,240.67 C150.70,245.10 158.25,252.17 161.92,254.08 C165.66,255.99 174.10,257.88 179.88,257.80 C181.91,257.77 187.21,256.94 189.68,256.22 C192.92,255.24 198.75,252.53 201.63,250.17 C203.47,248.63 206.26,245.20 207.28,243.19 C208.29,241.14 209.59,236.03 209.92,233.04 C210.06,231.70 210.14,227.81 210.15,226.75" fill="none" stroke="rgb(56, 45, 41)" stroke-width="20.00" stroke-opacity="1.00" stroke-linejoin="round"/>
<path d="M149.33,248.30 C149.01,250.11 147.61,264.01 146.86,270.12 C144.68,288.58 143.06,313.12 142.38,326.24 C142.25,329.99 142.00,338.59 141.99,340.89 C141.98,342.36 142.23,350.78 142.34,354.22 C142.38,356.09 142.35,356.59 142.35,356.58" fill="none" stroke="rgb(56, 45, 41)" stroke-width="20.00" stroke-opacity="1.00" stroke-linejoin="round"/>
<path d="M199.25,256.33 C198.69,257.38 198.30,259.97 197.39,267.03 C196.03,278.05 195.24,288.39 195.02,294.92 C194.56,312.82 195.59,330.14 196.47,348.16 C196.64,351.12 196.94,355.88 197.01,357.14" fill="none" stroke="rgb(56, 45, 41)" stroke-width="20.00" stroke-opacity="1.00" stroke-linejoin="round"/>
<path d="M140.83,308.57 C139.77,305.77 136.62,301.91 134.89,299.82 C129.67,293.76 121.01,286.95 117.44,284.72 C112.60,281.72 102.65,276.82 97.96,275.33 C92.44,273.60 81.74,271.88 75.96,271.60 C69.79,271.31 57.20,272.23 55.85,272.99 C54.85,273.68 55.47,288.19 56.79,293.65 C57.65,297.09 60.75,304.06 62.59,306.87 C64.34,309.48 68.96,313.87 72.06,315.77 C78.02,319.37 91.25,324.48 99.28,326.37 C106.59,328.06 120.80,329.73 127.23,330.42 C131.15,330.81 137.21,331.40 138.27,331.37" fill="none" stroke="rgb(56, 45, 41)" stroke-width="20.00" stroke-opacity="1.00" stroke-linejoin="round"/>
<path d="M197.35,309.57 C197.34,309.57 197.35,309.55 197.35,309.55 C198.66,305.39 200.26,303.07 203.88,298.93 C206.30,296.19 215.49,287.80 220.77,284.32 C223.28,282.69 232.36,277.88 236.42,276.40 C241.33,274.64 252.79,272.07 259.47,271.37 C264.92,270.87 275.06,270.22 276.06,270.20 C277.28,270.18 278.93,270.15 279.35,270.14" fill="none" stroke="rgb(56, 45, 41)" stroke-width="20.00" stroke-opacity="1.00" stroke-linejoin="round"/>
<path d="M282.55,269.65 C282.61,270.00 282.43,271.67 282.37,272.35 C281.64,282.56 280.01,291.66 277.68,297.47 C275.35,303.20 269.95,311.55 266.70,314.72 C263.53,317.77 252.95,322.95 246.52,324.78 C235.84,327.76 211.44,331.90 201.54,332.98 C200.99,333.04 199.77,333.16 197.88,333.33" fill="none" stroke="rgb(56, 45, 41)" stroke-width="20.00" stroke-opacity="1.00" stroke-linejoin="round"/>
<path d="M145.99,124.19 C145.99,124.19 145.01,124.62 145.01,124.62 C145.35,124.71 145.59,124.73 145.73,124.70 C145.87,124.67 146.10,124.53 146.44,124.30" fill="none" stroke="rgb(56, 45, 41)" stroke-width="20.00" stroke-opacity="1.00" stroke-linejoin="round"/>
<path d="M155.41,184.21 C155.76,183.85 155.93,183.67 155.91,183.67 C155.90,183.67 155.68,183.86 155.26,184.24" fill="none" stroke="rgb(56, 45, 41)" stroke-width="20.00" stroke-opacity="1.00" stroke-linejoin="round"/>
<path d="M204.49,151.41 C204.49,151.41 203.73,152.57 203.73,152.57 C203.73,152.57 205.09,152.67 205.09,152.67" fill="none" stroke="rgb(56, 45, 41)" stroke-width="20.00" stroke-opacity="1.00" stroke-linejoin="round"/>
</g>
</svg>
