<?xml version="1.0" encoding="UTF-8" standalone="no"?>
<!DOCTYPE svg PUBLIC "-//W3C//DTD SVG 1.1//EN" "http://www.w3.org/Graphics/SVG/1.1/DTD/svg11.dtd">
<svg width="70.87" height="70.87" viewBox="0.00 0.00 344.00 344.00" xmlns="http://www.w3.org/2000/svg" xmlns:xlink="http://www.w3.org/1999/xlink">
<g stroke-linecap="round" id="vert">
<path d="M144.14,-0.75 C143.93,2.52 144.04,14.37 143.31,23.15 C142.15,35.60 141.79,58.27 142.68,77.70 C142.96,84.22 144.66,97.62 144.08,103.82 C143.74,107.21 140.99,127.15 140.65,132.36 C140.23,138.93 139.88,183.16 140.02,187.67 C140.09,189.83 144.42,232.19 144.66,237.55 C144.88,242.64 142.67,282.13 142.31,286.40 C141.76,293.14 142.04,302.76 143.18,311.29 C145.05,325.15 145.67,341.69 145.61,346.95 C145.63,347.37 145.67,347.69 145.75,347.91" fill="none" stroke="rgb(56, 45, 41)" stroke-width="20.00" stroke-opacity="1.00" stroke-linejoin="round"/>
<path d="M199.23,-2.96 C198.40,-1.57 199.85,13.65 200.62,20.96 C201.40,30.34 201.34,37.63 200.85,48.76 C200.48,56.21 199.67,73.91 199.72,77.61 C199.76,80.64 200.39,93.32 200.17,105.61 C199.94,114.75 200.32,121.59 200.15,126.70 C199.85,133.51 197.76,148.46 197.75,153.66 C197.76,157.13 200.52,197.38 200.58,208.84 C200.63,221.23 200.38,245.29 199.69,257.36 C199.23,263.24 198.13,275.31 197.36,281.99 C196.73,287.42 196.62,289.81 197.10,294.03 C197.62,298.50 198.24,311.07 199.42,317.49 C200.06,321.01 200.34,335.29 199.81,340.64 C199.53,343.30 198.99,345.12 198.53,346.37" fill="none" stroke="rgb(56, 45, 41)" stroke-width="20.00" stroke-opacity="1.00" stroke-linejoin="round"/>
<path d="M133.66,290.18 C133.28,290.49 123.21,297.63 119.85,300.07 C118.35,301.16 116.14,302.77 115.42,303.29" fill="none" stroke="rgb(56, 45, 41)" stroke-width="20.00" stroke-opacity="1.00" stroke-linejoin="round"/>
<path d="M204.94,262.13 C206.26,263.29 209.08,264.43 211.51,264.96 C213.98,265.48 219.42,266.17 220.91,266.35" fill="none" stroke="rgb(56, 45, 41)" stroke-width="20.00" stroke-opacity="1.00" stroke-linejoin="round"/>
<path d="M134.96,187.64 C134.06,188.23 128.14,191.46 124.90,193.24 C121.62,195.04 116.22,197.21 114.86,197.49" fill="none" stroke="rgb(56, 45, 41)" stroke-width="20.00" stroke-opacity="1.00" stroke-linejoin="round"/>
<path d="M137.99,99.54 C135.69,101.23 130.85,104.24 127.55,105.79 C125.96,106.53 122.39,107.98 120.92,108.50 C120.39,108.68 119.63,108.91 118.62,109.19" fill="none" stroke="rgb(56, 45, 41)" stroke-width="20.00" stroke-opacity="1.00" stroke-linejoin="round"/>
<path d="M116.23,20.26 C117.51,20.21 123.03,20.09 126.50,20.54 C132.41,21.28 133.07,21.36 133.70,21.40" fill="none" stroke="rgb(56, 45, 41)" stroke-width="20.00" stroke-opacity="1.00" stroke-linejoin="round"/>
<path d="M203.98,63.39 C204.00,63.41 204.16,63.46 204.45,63.54 C207.93,64.50 218.75,69.43 219.29,69.66 C220.23,70.06 221.16,70.46 222.09,70.85" fill="none" stroke="rgb(56, 45, 41)" stroke-width="20.00" stroke-opacity="1.00" stroke-linejoin="round"/>
</g>
</svg>
