<?xml version="1.0" encoding="UTF-8" standalone="no"?>
<!DOCTYPE svg PUBLIC "-//W3C//DTD SVG 1.1//EN" "http://www.w3.org/Graphics/SVG/1.1/DTD/svg11.dtd">
<svg width="70.87" height="70.87" viewBox="0.00 0.00 344.00 344.00" xmlns="http://www.w3.org/2000/svg" xmlns:xlink="http://www.w3.org/1999/xlink">
<g stroke-linecap="round" transform="translate(-4.00, 0.00)" id="flower">
<path d="M152.77,231.93 C150.86,238.82 144.68,258.37 144.22,259.74 C142.56,264.73 139.47,277.92 139.01,283.56 C138.71,287.62 140.17,299.00 141.80,308.64 C146.14,331.81 148.55,341.76 150.11,348.19 C150.94,351.61 152.15,355.68 152.15,355.65" fill="none" stroke="rgb(56, 45, 41)" stroke-width="20.00" stroke-opacity="1.00" stroke-linejoin="round"/>
<path d="M212.68,228.14 C212.22,229.77 209.14,235.05 208.01,237.58 C206.08,241.93 201.45,256.39 199.03,263.99 C196.23,273.03 193.66,283.82 193.57,289.73 C193.53,293.67 194.83,302.54 196.73,309.83 C198.60,316.77 202.40,331.46 204.15,339.10 C205.61,345.60 207.51,353.98 208.19,355.94" fill="none" stroke="rgb(56, 45, 41)" stroke-width="20.00" stroke-opacity="1.00" stroke-linejoin="round"/>
<path d="M77.51,252.25 C78.44,252.52 81.10,253.28 82.82,253.77 C89.71,255.75 98.93,259.14 102.82,261.08 C107.27,263.32 117.14,269.58 121.96,273.37 C128.37,278.44 133.22,282.99 134.72,284.50 C135.03,284.82 135.34,285.13 135.65,285.45" fill="none" stroke="rgb(56, 45, 41)" stroke-width="20.00" stroke-opacity="1.00" stroke-linejoin="round"/>
<path d="M76.19,251.96 C76.19,251.95 76.16,252.96 76.12,253.94 C75.48,266.18 75.28,273.64 75.70,280.91 C76.05,286.87 77.81,300.54 79.68,305.15 C80.35,306.78 82.91,310.80 84.46,312.52 C87.20,315.51 94.80,320.10 102.27,323.21 C109.09,325.98 119.78,328.77 127.68,330.49 C130.51,331.16 135.10,332.28 138.30,332.97 C138.57,333.03 138.70,333.06 138.69,333.08" fill="none" stroke="rgb(56, 45, 41)" stroke-width="20.00" stroke-opacity="1.00" stroke-linejoin="round"/>
<path d="M79.51,69.34 C79.51,69.34 79.01,68.81 79.01,68.81 C80.70,68.02 93.47,69.97 100.09,71.49 C105.54,72.81 115.65,75.63 122.27,77.80 C130.01,80.59 138.63,84.18 143.22,86.60 C148.41,89.35 159.06,96.41 164.37,101.17 C168.82,105.19 173.68,110.95 176.31,114.29" fill="none" stroke="rgb(56, 45, 41)" stroke-width="20.00" stroke-opacity="1.00" stroke-linejoin="round"/>
<path d="M76.40,70.16 C75.64,71.01 71.00,83.67 69.81,89.85 C68.58,96.35 67.58,107.54 67.12,117.14 C66.83,125.97 66.92,139.11 67.92,145.54 C69.14,153.13 73.58,166.35 76.95,173.02 C79.90,178.82 87.75,189.83 93.28,195.68 C97.36,199.96 108.13,208.52 115.00,212.81 C120.90,216.48 132.98,222.49 139.31,224.93 C145.34,227.24 158.25,230.48 164.61,231.52 C171.45,232.62 183.63,233.28 189.81,232.89 C195.73,232.50 205.99,230.73 211.15,229.00 C215.92,227.38 225.27,222.75 229.77,219.82 C233.79,217.18 241.59,210.44 245.11,206.77 C248.54,203.16 254.51,194.84 257.79,188.75 C260.29,184.06 265.25,172.29 267.08,166.55 C269.27,159.61 272.14,145.79 273.07,138.44 C273.86,132.15 274.59,119.45 274.52,110.27 C274.39,102.93 272.87,90.05 271.36,85.02 C270.40,81.89 268.31,76.99 266.83,73.31 C266.69,72.97 266.52,72.56 266.32,72.09" fill="none" stroke="rgb(56, 45, 41)" stroke-width="20.00" stroke-opacity="1.00" stroke-linejoin="round"/>
<path d="M130.86,79.13 C131.16,79.05 131.41,78.92 131.59,78.75 C131.97,78.39 139.67,70.15 140.63,69.22 C141.96,67.95 153.90,58.29 160.26,54.69 C165.40,51.81 178.14,46.55 183.08,45.40 C184.26,45.15 188.48,46.68 190.91,48.15 C196.52,51.57 205.49,59.00 208.59,62.05 C215.63,69.07 222.44,79.84 222.96,80.67" fill="none" stroke="rgb(56, 45, 41)" stroke-width="20.00" stroke-opacity="1.00" stroke-linejoin="round"/>
<path d="M140.41,223.24 C139.77,216.42 138.32,204.93 138.01,199.88 C137.73,194.45 138.49,182.40 139.63,176.81 C140.78,171.29 144.93,159.98 147.27,155.30 C149.68,150.52 155.35,142.07 158.82,137.93 C162.39,133.70 169.49,126.53 176.27,120.36 C180.85,116.36 190.83,108.12 196.49,104.05 C202.56,99.69 215.03,92.08 221.41,88.91 C227.13,86.10 238.54,81.57 244.50,79.82 C254.32,76.97 259.50,75.26 262.52,74.06 C263.09,73.84 264.46,73.29 264.66,73.25" fill="none" stroke="rgb(56, 45, 41)" stroke-width="20.00" stroke-opacity="1.00" stroke-linejoin="round"/>
</g>
</svg>
