<?xml version="1.0" encoding="UTF-8" standalone="no"?>
<!DOCTYPE svg PUBLIC "-//W3C//DTD SVG 1.1//EN" "http://www.w3.org/Graphics/SVG/1.1/DTD/svg11.dtd">
<svg width="70.87" height="70.87" viewBox="0.00 0.00 344.00 344.00" xmlns="http://www.w3.org/2000/svg" xmlns:xlink="http://www.w3.org/1999/xlink">
<g stroke-linecap="round" id="round">
<path d="M144.62,-2.84 C144.21,-1.85 143.90,0.02 143.90,2.16 C143.90,3.87 144.68,19.86 144.32,26.44 C143.93,34.02 145.67,42.01 145.13,50.46 C144.49,59.55 144.60,67.27 145.18,77.34 C145.65,86.25 146.67,94.20 148.73,100.11 C150.27,104.48 154.66,114.46 157.85,119.57 C158.95,121.33 169.40,135.75 173.57,141.41 C175.19,143.64 186.37,156.59 188.68,158.75 C191.64,161.48 201.18,168.77 207.72,171.93 C208.88,172.49 218.77,176.73 219.89,177.28 C220.80,177.73 238.83,189.19 241.89,189.97 C250.47,192.04 264.18,197.25 267.31,198.21 C272.07,199.66 280.39,201.03 287.02,201.12 C290.07,201.16 311.61,200.66 315.10,200.84 C323.71,201.38 340.64,202.31 342.63,202.40 C344.92,202.51 348.55,202.34 348.43,202.28" fill="none" stroke="rgb(56, 45, 41)" stroke-width="20.00" stroke-opacity="1.00" stroke-linejoin="round"/>
<path d="M-1.90,143.97 C-0.35,144.21 37.34,142.25 44.56,142.86 C52.75,143.66 62.64,146.07 67.08,147.28 C71.94,148.41 79.61,150.28 86.53,151.43 C98.86,153.49 104.34,155.12 108.96,157.73 C116.49,162.02 127.37,169.36 129.61,170.99 C133.81,174.06 144.43,182.97 149.04,187.50 C153.71,192.27 163.28,201.92 166.52,205.95 C170.53,210.95 176.10,220.20 177.85,223.86 C180.65,230.04 186.57,243.02 189.51,249.70 C192.69,257.03 194.53,263.53 197.20,274.86 C198.17,278.80 200.30,290.64 200.31,296.59 C200.30,305.08 200.62,316.24 199.94,322.16 C199.49,325.99 198.57,334.03 198.51,336.54 C198.49,337.33 199.12,345.63 199.12,347.24 C199.12,347.61 199.09,348.11 199.04,348.72" fill="none" stroke="rgb(56, 45, 41)" stroke-width="20.00" stroke-opacity="1.00" stroke-linejoin="round"/>
<path d="M-1.72,198.11 C12.13,198.56 34.85,198.93 37.21,199.54 C41.58,201.07 51.86,204.05 57.77,205.50 C63.20,207.01 72.25,210.86 78.39,213.75 C81.89,215.44 93.67,222.16 95.16,223.28 C99.59,226.62 107.25,235.07 110.08,237.86 C111.85,239.61 127.37,256.72 128.31,257.98 C129.33,259.36 136.65,275.88 137.75,279.11 C139.72,285.26 143.30,296.39 144.52,302.59 C145.48,307.81 145.31,322.71 145.38,325.32 C145.43,327.98 145.05,337.76 145.03,338.83 C145.00,339.88 144.86,345.74 144.56,348.09 C144.52,348.36 144.46,348.69 144.38,349.11" fill="none" stroke="rgb(56, 45, 41)" stroke-width="20.00" stroke-opacity="1.00" stroke-linejoin="round"/>
<path d="M26.48,126.24 C26.58,127.22 26.74,128.16 27.15,129.97 C27.48,131.37 28.10,134.11 28.40,135.44 C28.53,136.04 28.67,136.65 28.80,137.26" fill="none" stroke="rgb(56, 45, 41)" stroke-width="20.00" stroke-opacity="1.00" stroke-linejoin="round"/>
<path d="M55.84,212.80 C55.80,213.06 54.91,215.04 54.54,215.85 C54.21,216.60 52.22,221.29 51.91,222.07 C51.73,222.56 51.43,223.39 51.01,224.59" fill="none" stroke="rgb(56, 45, 41)" stroke-width="20.00" stroke-opacity="1.00" stroke-linejoin="round"/>
<path d="M123.17,298.05 C123.54,298.19 124.23,298.23 126.40,298.21 C127.95,298.19 129.10,298.20 129.84,298.23 C130.48,298.26 131.72,298.34 133.56,298.48" fill="none" stroke="rgb(56, 45, 41)" stroke-width="20.00" stroke-opacity="1.00" stroke-linejoin="round"/>
<path d="M96.97,130.76 C96.88,131.49 96.63,133.48 96.47,134.74 C96.24,136.46 95.79,139.74 95.58,141.31 C95.46,142.07 95.35,142.83 95.23,143.60" fill="none" stroke="rgb(56, 45, 41)" stroke-width="20.00" stroke-opacity="1.00" stroke-linejoin="round"/>
<path d="M167.84,197.11 C168.58,196.82 169.37,196.42 170.90,195.52 C172.43,194.62 173.23,194.17 173.97,193.77" fill="none" stroke="rgb(56, 45, 41)" stroke-width="20.00" stroke-opacity="1.00" stroke-linejoin="round"/>
<path d="M202.18,274.15 C203.03,274.43 207.01,274.75 212.36,274.97 C214.21,275.04 217.43,275.17 218.80,275.22" fill="none" stroke="rgb(56, 45, 41)" stroke-width="20.00" stroke-opacity="1.00" stroke-linejoin="round"/>
<path d="M123.11,36.15 C123.62,36.35 125.09,36.29 127.27,35.90 C129.80,35.46 132.85,34.69 133.73,34.41" fill="none" stroke="rgb(56, 45, 41)" stroke-width="20.00" stroke-opacity="1.00" stroke-linejoin="round"/>
<path d="M154.75,125.15 C154.21,125.75 147.62,132.43 146.23,133.97 C145.78,134.45 145.34,134.94 144.89,135.42" fill="none" stroke="rgb(56, 45, 41)" stroke-width="20.00" stroke-opacity="1.00" stroke-linejoin="round"/>
<path d="M230.58,190.89 C229.47,192.91 227.26,199.37 226.99,200.23 C226.75,200.99 226.52,201.75 226.28,202.52" fill="none" stroke="rgb(56, 45, 41)" stroke-width="20.00" stroke-opacity="1.00" stroke-linejoin="round"/>
<path d="M308.73,207.93 C308.75,208.22 308.57,210.66 308.43,212.55 C308.33,213.87 308.24,215.18 308.15,216.50 C308.09,217.51 308.03,218.51 307.97,219.51" fill="none" stroke="rgb(56, 45, 41)" stroke-width="20.00" stroke-opacity="1.00" stroke-linejoin="round"/>
<path d="M211.39,53.64 C211.57,54.06 212.57,54.57 213.76,54.70 C214.20,54.75 216.94,54.59 218.19,54.56 C219.23,54.53 222.33,54.53 223.48,54.53" fill="none" stroke="rgb(56, 45, 41)" stroke-width="20.00" stroke-opacity="1.00" stroke-linejoin="round"/>
<path d="M254.52,116.02 C254.21,117.80 253.94,119.12 253.53,120.82 C252.61,124.44 251.29,129.61 250.88,131.16" fill="none" stroke="rgb(56, 45, 41)" stroke-width="20.00" stroke-opacity="1.00" stroke-linejoin="round"/>
<path d="M320.38,128.55 C320.54,129.40 320.71,130.75 321.04,133.85 C321.17,135.15 321.30,136.44 321.43,137.74 C321.48,138.24 321.53,138.92 321.59,139.77" fill="none" stroke="rgb(56, 45, 41)" stroke-width="20.00" stroke-opacity="1.00" stroke-linejoin="round"/>
<path d="M199.53,-0.65 C199.57,-0.25 199.29,1.91 199.07,3.55 C197.69,14.86 200.55,43.70 201.68,56.23 C202.24,64.60 203.59,71.30 205.44,76.97 C208.12,85.10 210.05,90.10 215.42,99.91 C217.08,102.96 220.48,109.20 221.78,110.80 C222.07,111.14 227.96,117.57 230.09,120.05 C233.56,123.95 239.45,127.27 248.75,131.68 C249.27,131.93 262.76,140.41 267.99,142.02 C272.58,143.40 287.29,146.77 290.62,147.03 C301.20,147.82 329.19,146.10 341.22,145.72 C343.39,145.51 346.13,145.25 346.71,145.19" fill="none" stroke="rgb(56, 45, 41)" stroke-width="20.00" stroke-opacity="1.00" stroke-linejoin="round"/>
</g>
</svg>
