<?xml version="1.0" encoding="UTF-8" standalone="no"?>
<!DOCTYPE svg PUBLIC "-//W3C//DTD SVG 1.1//EN" "http://www.w3.org/Graphics/SVG/1.1/DTD/svg11.dtd">
<svg width="70.87" height="70.87" viewBox="0.00 0.00 344.00 344.00" xmlns="http://www.w3.org/2000/svg" xmlns:xlink="http://www.w3.org/1999/xlink">
<g stroke-linecap="round" id="Layer_11">
<path d="M215.45,264.18 C209.98,266.73 196.15,273.12 189.17,275.07 C181.78,277.10 165.59,278.35 158.25,277.85 C150.86,277.31 134.51,273.55 127.99,270.94 C121.48,268.30 106.72,259.49 101.34,255.02 C95.99,250.52 84.79,237.70 80.92,231.64 C77.08,225.56 70.48,210.57 68.73,203.09 C67.07,195.88 65.73,177.43 65.95,172.18 C66.20,166.59 67.67,159.82 68.27,157.18" fill="none" stroke="rgb(56, 45, 41)" stroke-width="20.00" stroke-opacity="1.00" stroke-linejoin="round"/>
<path d="M129.42,79.31 C141.59,73.71 150.71,69.74 158.66,68.01 C166.11,66.43 182.50,65.71 189.62,66.52 C197.31,67.42 213.22,71.69 219.54,74.61 C226.71,77.96 240.43,86.83 245.53,91.55 C251.33,96.96 261.49,109.45 265.03,115.65 C269.11,122.85 274.65,137.09 276.07,144.82 C277.37,152.10 278.34,171.12 277.65,177.27 C277.36,179.79 276.02,185.50 275.71,186.90" fill="none" stroke="rgb(56, 45, 41)" stroke-width="20.00" stroke-opacity="1.00" stroke-linejoin="round"/>
</g>
<g stroke-linecap="round" transform="translate(-5.00, -2.00)" id="Layer_10">
<path d="M152.47,121.48 L91.34,113.53" fill="none" stroke="rgb(56, 45, 41)" stroke-width="20.00" stroke-opacity="1.00" stroke-linejoin="round"/>
<path d="M91.34,113.53 L103.17,53.02" fill="none" stroke="rgb(56, 45, 41)" stroke-width="20.00" stroke-opacity="1.00" stroke-linejoin="round"/>
<path d="M152.47,121.48 L103.17,53.02" fill="none" stroke="rgb(56, 45, 41)" stroke-width="20.00" stroke-opacity="1.00" stroke-linejoin="round"/>
</g>
<g stroke-linecap="round" transform="translate(5.00, 2.00)" id="Layer_10_Copy_2">
<path d="M191.53,222.52 L252.66,230.47" fill="none" stroke="rgb(56, 45, 41)" stroke-width="20.00" stroke-opacity="1.00" stroke-linejoin="round"/>
<path d="M252.66,230.47 L240.83,290.98" fill="none" stroke="rgb(56, 45, 41)" stroke-width="20.00" stroke-opacity="1.00" stroke-linejoin="round"/>
<path d="M191.53,222.52 L240.83,290.98" fill="none" stroke="rgb(56, 45, 41)" stroke-width="20.00" stroke-opacity="1.00" stroke-linejoin="round"/>
</g>
</svg>
