<?xml version="1.0" encoding="UTF-8" standalone="no"?>
<!DOCTYPE svg PUBLIC "-//W3C//DTD SVG 1.1//EN" "http://www.w3.org/Graphics/SVG/1.1/DTD/svg11.dtd">
<svg width="70.87" height="70.87" viewBox="0.00 0.00 344.00 344.00" xmlns="http://www.w3.org/2000/svg" xmlns:xlink="http://www.w3.org/1999/xlink">
<g stroke-linecap="round" id="flower_20">
<path d="M152.04,267.42 C151.43,269.43 149.74,274.92 148.67,278.41 C146.99,283.93 144.10,298.50 143.33,304.79 C142.73,309.75 142.43,320.52 142.68,325.56 C143.01,331.95 144.89,343.09 146.20,350.29 C146.26,350.68 146.34,351.25 146.43,352.00" fill="none" stroke="rgb(56, 45, 41)" stroke-width="20.00" stroke-opacity="1.00" stroke-linejoin="round"/>
<path d="M210.07,266.58 C209.17,267.40 200.13,305.63 199.90,307.58 C199.26,312.99 199.79,341.17 200.34,345.17 C200.67,347.39 201.41,349.22 201.70,349.69" fill="none" stroke="rgb(56, 45, 41)" stroke-width="20.00" stroke-opacity="1.00" stroke-linejoin="round"/>
<path d="M150.07,171.16 C150.07,171.16 150.51,170.60 150.51,170.60 C150.03,170.67 146.01,173.72 143.89,176.48 C142.74,178.00 138.00,183.73 136.08,186.85 C131.39,194.50 127.72,201.45 125.88,206.36 C123.97,211.50 121.60,222.00 121.42,226.58 C121.27,231.21 123.27,242.33 125.73,246.90 C127.34,249.82 132.17,255.02 135.65,257.49 C138.66,259.58 147.58,263.93 151.99,265.40 C157.24,267.13 168.69,269.36 173.82,269.65 C179.00,269.91 190.41,269.02 195.79,268.13 C200.11,267.40 208.05,265.25 213.51,263.05 C218.57,260.98 226.98,256.07 230.19,253.14 C233.34,250.26 238.81,242.67 240.67,238.44 C243.14,232.72 244.72,222.78 244.70,216.74 C244.67,211.37 243.39,201.16 242.02,197.10 C241.40,195.29 239.34,190.65 237.84,188.12 C235.32,183.90 226.45,176.19 221.75,173.10 C220.52,172.30 212.20,167.12 209.32,165.51 C204.81,163.00 199.88,160.25 199.46,160.00" fill="none" stroke="rgb(56, 45, 41)" stroke-width="20.00" stroke-opacity="1.00" stroke-linejoin="round"/>
<path d="M168.14,115.08 C168.56,114.51 168.39,112.90 167.68,110.37 C165.80,103.72 163.51,97.21 161.32,93.67 C157.05,86.91 153.24,81.62 148.65,76.90 C146.91,75.14 142.12,71.54 140.01,70.50 C135.50,68.30 125.91,66.07 120.51,65.78 C117.80,65.64 111.49,66.06 108.48,66.58 C102.42,67.68 89.72,73.14 83.84,77.17 C79.75,80.00 72.40,86.72 68.33,91.82 C65.24,95.75 60.56,103.70 58.95,107.27 C56.86,111.94 53.67,122.84 53.03,131.00 C52.52,137.82 53.67,152.73 55.41,159.58 C57.13,166.24 62.12,176.93 64.87,180.40 C68.27,184.63 76.31,190.58 81.14,192.56 C85.25,194.21 94.48,195.86 99.79,195.87 C104.51,195.87 114.89,194.05 120.02,191.74 C130.30,187.05 142.36,176.36 142.64,176.09 C144.95,173.87 146.38,171.66 146.52,171.32" fill="none" stroke="rgb(56, 45, 41)" stroke-width="20.00" stroke-opacity="1.00" stroke-linejoin="round"/>
<path d="M167.40,113.77 C167.83,111.71 166.87,99.52 167.01,93.18 C167.28,83.84 171.36,67.96 173.28,63.59 C174.67,60.47 179.06,54.13 180.65,52.47 C183.91,49.12 190.27,44.60 195.19,42.62 C200.04,40.69 212.31,38.66 218.21,39.24 C225.51,40.00 236.32,44.14 240.97,46.88 C244.81,49.17 250.96,53.76 254.71,57.15 C258.08,60.22 265.01,68.03 267.96,72.14 C271.84,77.56 278.31,88.85 281.22,95.27 C283.89,101.20 287.44,111.37 288.96,116.61 C290.78,123.10 292.55,135.54 292.28,140.73 C292.12,143.46 291.00,149.16 290.26,151.57 C289.50,153.96 287.29,158.59 284.90,161.87 C282.61,164.97 277.73,169.83 274.73,172.02 C272.45,173.66 265.69,176.79 262.98,177.67 C260.01,178.62 252.51,179.85 248.86,180.06 C244.79,180.27 237.67,180.15 234.52,179.39 C230.98,178.50 220.54,173.48 215.10,169.89 C214.10,169.23 206.88,164.10 206.53,163.79 C206.26,163.55 205.82,163.10 205.22,162.45" fill="none" stroke="rgb(56, 45, 41)" stroke-width="20.00" stroke-opacity="1.00" stroke-linejoin="round"/>
<path d="M169.40,117.40 C168.80,117.33 164.59,119.84 162.07,121.72 C159.18,123.91 154.61,128.75 153.05,131.04 C151.34,133.59 148.67,139.83 147.90,142.96 C147.14,146.18 147.07,152.43 147.75,155.65 C148.40,158.60 150.70,163.81 152.08,165.81 C153.45,167.76 157.04,170.89 159.01,171.92 C161.44,173.15 166.78,174.54 170.21,174.78 C174.04,175.02 180.10,174.44 183.48,173.35 C186.31,172.40 191.43,168.76 193.05,166.89 C194.33,165.39 196.94,161.49 197.59,159.61 C198.34,157.35 199.36,151.44 199.49,148.70 C199.61,145.51 198.93,138.96 198.02,136.48 C197.06,133.93 193.53,128.94 191.60,127.21 C189.74,125.59 184.42,122.79 182.34,122.12 C180.52,121.55 175.87,120.82 173.28,121.00 C170.95,121.17 166.35,122.23 165.64,122.72" fill="none" stroke="rgb(56, 45, 41)" stroke-width="20.00" stroke-opacity="1.00" stroke-linejoin="round"/>
<path d="M151.42,129.27 C150.73,127.43 148.71,124.60 146.58,122.62 C144.53,120.74 141.29,118.86 139.02,118.04 C136.38,117.14 130.56,116.08 126.78,116.13 C123.37,116.21 116.94,117.67 113.99,119.04 C110.93,120.52 105.84,124.88 104.07,127.76 C102.29,130.74 99.93,138.05 99.83,141.62 C99.78,145.14 101.53,151.84 102.91,154.14 C104.63,156.90 109.87,160.43 113.12,161.20 C116.24,161.88 123.44,161.92 127.49,160.94 C129.14,160.52 134.03,158.56 137.12,156.97 C140.64,155.13 143.66,152.91 144.66,151.99" fill="none" stroke="rgb(56, 45, 41)" stroke-width="20.00" stroke-opacity="1.00" stroke-linejoin="round"/>
<path d="M165.05,178.21 C164.92,178.67 162.24,183.85 160.92,186.41 C159.57,189.10 158.23,192.81 157.52,196.43 C156.78,200.42 157.32,207.14 158.94,210.76 C159.55,212.08 162.31,215.40 165.08,217.40 C167.80,219.33 175.60,222.17 179.15,222.62 C183.07,223.07 189.60,222.08 192.16,220.71 C194.64,219.31 198.50,214.02 199.78,210.27 C201.36,205.40 201.18,196.08 200.54,192.14 C200.06,189.41 198.20,183.67 196.70,181.20 C193.82,176.62 190.20,173.72 188.59,172.71 C188.41,172.59 188.22,172.48 188.04,172.37" fill="none" stroke="rgb(56, 45, 41)" stroke-width="20.00" stroke-opacity="1.00" stroke-linejoin="round"/>
<path d="M190.04,122.90 C190.25,122.81 190.39,122.74 190.48,122.68 C191.04,122.22 192.54,116.53 193.50,113.77 C194.87,109.92 198.66,104.53 202.18,101.95 C203.43,101.05 207.71,98.79 209.74,97.99 C212.72,96.83 217.90,95.65 220.22,95.78 C222.02,95.90 227.00,96.85 229.60,98.17 C230.92,98.86 235.12,102.40 237.14,105.15 C239.13,107.91 242.58,117.60 243.01,122.15 C243.23,124.80 242.98,130.90 242.13,133.70 C241.20,136.64 237.28,142.00 234.90,143.81 C232.61,145.52 227.16,147.76 223.81,148.49 C219.98,149.30 216.03,149.69 213.02,149.52 C211.41,149.41 209.07,148.98 208.08,148.61 C207.82,148.50 207.58,148.34 207.39,148.12" fill="none" stroke="rgb(56, 45, 41)" stroke-width="20.00" stroke-opacity="1.00" stroke-linejoin="round"/>
<path d="M141.85,302.17 C141.63,302.07 132.78,293.48 127.95,289.69 C121.99,285.03 111.64,279.06 107.61,277.32 C103.10,275.38 93.49,272.48 87.35,271.64 C83.37,271.11 79.16,270.88 75.99,270.86 C73.36,270.86 69.30,271.52 67.23,272.49 C66.90,272.66 67.72,282.07 69.96,289.69 C72.36,297.58 76.37,306.16 78.55,309.71 C81.05,313.74 87.01,320.04 90.64,322.22 C93.84,324.12 103.15,327.74 107.31,328.80 C112.11,330.01 124.21,331.48 129.63,331.59 C133.43,331.65 136.17,330.77 136.69,330.51" fill="none" stroke="rgb(56, 45, 41)" stroke-width="20.00" stroke-opacity="1.00" stroke-linejoin="round"/>
</g>
<g stroke-linecap="round" transform="translate(-1.00, -5.00)" id="number_10">
<path d="M34.67,18.79 C33.99,19.93 30.48,23.73 27.32,27.60 C23.77,31.96 18.21,39.73 18.23,40.29 C18.87,41.12 23.01,41.36 26.57,41.37 C30.05,41.30 36.80,41.13 40.07,41.02 C41.90,40.95 42.54,40.94 44.35,40.94 C44.45,40.94 44.74,40.95 44.64,40.94" fill="none" stroke="rgb(56, 45, 41)" stroke-width="10.00" stroke-opacity="1.00" stroke-linejoin="round"/>
<path d="M35.80,17.72 C35.73,18.94 35.69,19.90 35.65,22.26 C35.34,40.04 35.45,51.90 35.70,54.99 C35.73,55.70 35.61,56.31 35.49,56.59" fill="none" stroke="rgb(56, 45, 41)" stroke-width="10.00" stroke-opacity="1.00" stroke-linejoin="round"/>
</g>
</svg>
